<svg width="14" height="12" viewBox="0 0 14 12" fill="none" xmlns="http://www.w3.org/2000/svg">
<path d="M7.67336 2.86909C7.67336 3.60242 7.86503 4.21742 8.24836 4.71659C8.52003 5.05992 8.88836 5.28575 9.35419 5.39325C9.81253 5.49992 10.2459 5.50742 10.6375 5.41658C10.7709 6.20825 10.5542 7.04658 10.0042 7.93492C9.45419 8.82242 8.74169 9.49075 7.87253 9.93742L9.18919 11.8333C9.85586 11.5033 10.4892 11.0849 11.0725 10.5791C11.6642 10.0733 12.1892 9.49159 12.6559 8.83409C13.1225 8.17659 13.4725 7.43409 13.6975 6.59242C13.9225 5.75075 13.9859 4.89242 13.8784 4.00909C13.7384 2.84242 13.3617 1.90908 12.7484 1.21742C12.1359 0.517418 11.3717 0.167418 10.4584 0.167418C9.65419 0.167418 8.98669 0.409084 8.45836 0.899084C7.93503 1.37908 7.67503 2.03658 7.67503 2.87242L7.67336 2.86992V2.86909ZM0.0700245 2.86909C0.0700245 3.60242 0.261693 4.21742 0.645026 4.71659C0.916693 5.06659 1.28669 5.29325 1.75086 5.39742C2.21753 5.50075 2.64586 5.50575 3.03419 5.41575C3.16753 6.19908 2.95919 7.04075 2.40919 7.93242C1.85919 8.81575 1.14752 9.48242 0.278358 9.93242L1.59169 11.8333C2.25836 11.5033 2.88753 11.0849 3.47503 10.5791C4.07208 10.0658 4.60234 9.47951 5.05336 8.83409C5.51669 8.17575 5.86169 7.43409 6.08669 6.59242C6.3144 5.75126 6.37582 4.87376 6.26753 4.00909C6.13003 2.84242 5.75503 1.90908 5.14253 1.21742C4.53253 0.523252 3.77086 0.175751 2.85752 0.175751C2.05169 0.175751 1.38419 0.417418 0.85586 0.90575C0.33336 1.38575 0.070858 2.04325 0.070858 2.87908V2.87075L0.0700245 2.86909Z" fill="#0E0D4C"/>
</svg>
