<svg width="14" height="12" viewBox="0 0 14 12" fill="none" xmlns="http://www.w3.org/2000/svg">
<path d="M6.32664 9.13091C6.32664 8.39758 6.13497 7.78258 5.75164 7.28341C5.47997 6.94008 5.11164 6.71425 4.64581 6.60675C4.18747 6.50008 3.75414 6.49258 3.36248 6.58342C3.22914 5.79175 3.44581 4.95342 3.99581 4.06508C4.54581 3.17758 5.25831 2.50925 6.12747 2.06258L4.81081 0.166748C4.14414 0.496748 3.51081 0.915082 2.92747 1.42091C2.33581 1.92675 1.81081 2.50841 1.34414 3.16591C0.877475 3.82341 0.527475 4.56591 0.302475 5.40758C0.0774749 6.24925 0.0141416 7.10758 0.121642 7.99091C0.261642 9.15758 0.638308 10.0909 1.25164 10.7826C1.86414 11.4826 2.62831 11.8326 3.54164 11.8326C4.34581 11.8326 5.01331 11.5909 5.54164 11.1009C6.06497 10.6209 6.32497 9.96342 6.32497 9.12758L6.32664 9.13008V9.13091ZM13.93 9.13091C13.93 8.39758 13.7383 7.78258 13.355 7.28341C13.0833 6.93341 12.7133 6.70675 12.2491 6.60258C11.7825 6.49925 11.3541 6.49425 10.9658 6.58425C10.8325 5.80092 11.0408 4.95925 11.5908 4.06758C12.1408 3.18425 12.8525 2.51758 13.7216 2.06758L12.4083 0.166748C11.7416 0.496748 11.1125 0.915082 10.525 1.42091C9.92792 1.93424 9.39766 2.52049 8.94664 3.16591C8.48331 3.82425 8.13831 4.56591 7.91331 5.40758C7.6856 6.24874 7.62418 7.12624 7.73247 7.99091C7.86997 9.15758 8.24497 10.0909 8.85747 10.7826C9.46747 11.4767 10.2291 11.8242 11.1425 11.8242C11.9483 11.8242 12.6158 11.5826 13.1441 11.0942C13.6666 10.6142 13.9291 9.95675 13.9291 9.12092V9.12925L13.93 9.13091Z" fill="#0E0D4C"/>
</svg>
